<svg xmlns="http://www.w3.org/2000/svg" viewBox="0 0 32 32" width="32" height="32">
  <defs>
    <linearGradient id="heartGrad" x1="0%" y1="0%" x2="100%" y2="100%">
      <stop offset="0%" style="stop-color:#A8C5A8;stop-opacity:1" />
      <stop offset="100%" style="stop-color:#8FB58F;stop-opacity:1" />
    </linearGradient>
  </defs>

  <!-- Background circle -->
  <circle cx="16" cy="16" r="15" fill="#FDFBF7" stroke="#E8F0E8" stroke-width="1"/>

  <!-- Heart shape -->
  <path d="M16 10
           Q12 6 8 10
           Q4 14 8 19
           L16 27
           L24 19
           Q28 14 24 10
           Q20 6 16 10"
        fill="url(#heartGrad)"
        stroke="#5A7A5A"
        stroke-width="0.5"/>

  <!-- Inner heart highlight -->
  <path d="M16 13
           Q13 10 10 13
           Q8 16 10 18
           L16 24
           L22 18
           Q24 16 22 13
           Q19 10 16 13"
        fill="#F5D5DC"
        opacity="0.6"/>

  <!-- Small plus sign (medical/healing symbol) -->
  <rect x="14" y="15" width="4" height="1" fill="#5A7A5A" rx="0.5" opacity="0.7"/>
  <rect x="15.5" y="13.5" width="1" height="4" fill="#5A7A5A" rx="0.5" opacity="0.7"/>
</svg>
