<svg xmlns="http://www.w3.org/2000/svg" viewBox="0 0 400 100" width="400" height="100">
  <defs>
    <linearGradient id="hPetalG" x1="0%" y1="0%" x2="100%" y2="100%">
      <stop offset="0%" style="stop-color:#A8C5A8;stop-opacity:1" />
      <stop offset="100%" style="stop-color:#C8D8C8;stop-opacity:1" />
    </linearGradient>
    <linearGradient id="hPetalP" x1="0%" y1="0%" x2="100%" y2="100%">
      <stop offset="0%" style="stop-color:#F5D5DC;stop-opacity:1" />
      <stop offset="100%" style="stop-color:#FFEEF2;stop-opacity:1" />
    </linearGradient>
  </defs>

  <!-- Outer petals (sage green) -->
  <ellipse cx="50" cy="35" rx="12" ry="28" fill="url(#hPetalG)" transform="rotate(-30 50 50)" opacity="0.8"/>
  <ellipse cx="50" cy="35" rx="12" ry="28" fill="url(#hPetalG)" transform="rotate(30 50 50)" opacity="0.8"/>
  <ellipse cx="50" cy="35" rx="12" ry="28" fill="url(#hPetalG)" transform="rotate(-60 50 50)" opacity="0.7"/>
  <ellipse cx="50" cy="35" rx="12" ry="28" fill="url(#hPetalG)" transform="rotate(60 50 50)" opacity="0.7"/>

  <!-- Middle petals (soft pink) -->
  <ellipse cx="50" cy="38" rx="10" ry="24" fill="url(#hPetalP)" transform="rotate(-20 50 50)" opacity="0.9"/>
  <ellipse cx="50" cy="38" rx="10" ry="24" fill="url(#hPetalP)" transform="rotate(20 50 50)" opacity="0.9"/>
  <ellipse cx="50" cy="38" rx="10" ry="24" fill="url(#hPetalP)" transform="rotate(-45 50 50)" opacity="0.85"/>
  <ellipse cx="50" cy="38" rx="10" ry="24" fill="url(#hPetalP)" transform="rotate(45 50 50)" opacity="0.85"/>

  <!-- Inner petals -->
  <ellipse cx="50" cy="42" rx="8" ry="18" fill="#FFEEF2" transform="rotate(-10 50 50)" opacity="0.95"/>
  <ellipse cx="50" cy="42" rx="8" ry="18" fill="#FFEEF2" transform="rotate(10 50 50)" opacity="0.95"/>
  <ellipse cx="50" cy="44" rx="6" ry="15" fill="#FDFBF7" opacity="0.9"/>

  <!-- Center -->
  <circle cx="50" cy="50" r="10" fill="#FDFBF7" stroke="#E8B4BC" stroke-width="1"/>
  <circle cx="50" cy="50" r="6" fill="#A8C5A8" opacity="0.6"/>
  <circle cx="50" cy="50" r="3" fill="#5A7A5A" opacity="0.4"/>

  <!-- Text: Recovery Buddy -->
  <text x="120" y="45"
        font-family="Georgia, serif"
        font-size="32"
        font-weight="600"
        fill="#5A7A5A">Recovery</text>
  <text x="280" y="45"
        font-family="Georgia, serif"
        font-size="32"
        font-weight="600"
        fill="#8FB58F">Buddy</text>

  <!-- Tagline -->
  <text x="120" y="72"
        font-family="Arial, sans-serif"
        font-size="12"
        fill="#8B9B8B">Bloom through your recovery journey</text>
</svg>
